<svg width="435" height="117" viewBox="0 0 435 117" fill="none" xmlns="http://www.w3.org/2000/svg">
<path d="M24.528 77.928L29.616 79.512V81H2.68799V79.512L7.77599 77.928V22.44C7.35999 22.088 6.78399 21.608 6.04799 21C5.31199 20.392 4.43199 19.672 3.40799 18.84C2.38399 18.008 1.24799 17.08 -1.27554e-05 16.056V14.712L23.616 9.47999H24.528V19.176V77.928ZM56.1007 79.08C58.1167 79.08 59.7327 78.344 60.9487 76.872C62.1967 75.4 63.0927 73.096 63.6367 69.96C64.1807 66.792 64.4527 62.712 64.4527 57.72C64.4527 52.408 64.1807 47.992 63.6367 44.472C63.1247 40.92 62.2447 38.264 60.9967 36.504C59.7807 34.712 58.1167 33.816 56.0047 33.816C53.9567 33.816 52.3247 34.552 51.1087 36.024C49.8927 37.496 49.0127 39.8 48.4687 42.936C47.9247 46.072 47.6527 50.136 47.6527 55.128C47.6527 60.408 47.9087 64.824 48.4207 68.376C48.9327 71.928 49.7967 74.6 51.0127 76.392C52.2607 78.184 53.9567 79.08 56.1007 79.08ZM55.4767 82.248C50.5167 82.248 46.1327 81.16 42.3247 78.984C38.5167 76.808 35.5407 73.8 33.3967 69.96C31.2847 66.088 30.2287 61.64 30.2287 56.616C30.2287 51.464 31.3647 46.936 33.6367 43.032C35.9407 39.128 39.0767 36.088 43.0447 33.912C47.0447 31.704 51.5567 30.6 56.5807 30.6C61.6687 30.6 66.1007 31.688 69.8767 33.864C73.6527 36.008 76.5967 39.016 78.7087 42.888C80.8207 46.728 81.8767 51.176 81.8767 56.232C81.8767 61.384 80.7087 65.928 78.3727 69.864C76.0367 73.768 72.8847 76.808 68.9167 78.984C64.9487 81.16 60.4687 82.248 55.4767 82.248ZM121.693 30.84C123.517 30.84 124.941 31.4 125.965 32.52C127.021 33.608 127.549 35.064 127.549 36.888C127.549 39.192 126.797 41.16 125.293 42.792C123.789 44.392 121.949 45.192 119.773 45.192C118.397 45.192 117.213 45.08 116.221 44.856C115.261 44.6 114.301 44.36 113.341 44.136C112.413 43.88 111.325 43.752 110.077 43.752C109.149 43.752 108.301 43.864 107.533 44.088C106.765 44.312 106.045 44.648 105.373 45.096C104.733 45.512 104.061 46.088 103.357 46.824L103.309 44.568C106.029 41.496 108.301 39.048 110.125 37.224C111.981 35.4 113.565 34.04 114.877 33.144C116.221 32.216 117.421 31.608 118.477 31.32C119.533 31 120.605 30.84 121.693 30.84ZM104.989 40.44V77.928L111.085 79.512V81H83.1967V79.512L88.2847 77.928V43.56C87.8687 43.144 87.4367 42.712 86.9887 42.264C86.5407 41.816 85.9487 41.24 85.2127 40.536C84.5087 39.8 83.5647 38.808 82.3807 37.56V36.216L104.125 30.408H104.989V40.44ZM150.643 30.6C154.707 30.6 158.163 31.4 161.011 33C163.859 34.568 166.083 36.856 167.683 39.864C169.283 42.872 170.243 46.488 170.563 50.712H138.019V46.92H163.267L155.683 49.272C155.491 45.336 155.123 42.264 154.579 40.056C154.067 37.816 153.347 36.232 152.419 35.304C151.523 34.376 150.387 33.912 149.011 33.912C147.315 33.912 145.875 34.424 144.691 35.448C143.539 36.472 142.659 38.2 142.051 40.632C141.443 43.064 141.139 46.408 141.139 50.664C141.139 55.624 141.715 59.624 142.867 62.664C144.051 65.672 145.795 67.864 148.099 69.24C150.403 70.616 153.251 71.304 156.643 71.304C158.371 71.304 159.987 71.112 161.491 70.728C163.027 70.312 164.499 69.656 165.907 68.76C167.347 67.864 168.787 66.664 170.227 65.16L171.379 66.168C169.139 70.168 166.883 73.352 164.611 75.72C162.371 78.056 160.003 79.736 157.507 80.76C155.043 81.752 152.307 82.248 149.299 82.248C144.563 82.248 140.387 81.272 136.771 79.32C133.155 77.368 130.339 74.536 128.323 70.824C126.339 67.112 125.347 62.648 125.347 57.432C125.347 52.632 126.307 48.2 128.227 44.136C130.147 40.04 132.979 36.76 136.723 34.296C140.499 31.832 145.139 30.6 150.643 30.6Z" fill="black"/>
<path d="M192.16 67.752C192.16 70.056 192.88 71.784 194.32 72.936C195.76 74.088 197.712 74.664 200.176 74.664C201.616 74.664 203.12 74.552 204.688 74.328C206.256 74.072 208.096 73.64 210.208 73.032V74.616C207.104 76.568 204.544 78.088 202.528 79.176C200.544 80.264 198.8 81.016 197.296 81.432C195.824 81.88 194.288 82.104 192.688 82.104C190.544 82.104 188.576 81.656 186.784 80.76C185.024 79.864 183.6 78.456 182.512 76.536C181.456 74.584 180.928 72.056 180.928 68.952V38.952L174.4 34.584V33.72C174.752 33.496 175.328 33.16 176.128 32.712C176.928 32.232 177.888 31.656 179.008 30.984C180.16 30.28 181.408 29.512 182.752 28.68C184.128 27.816 185.568 26.92 187.072 25.992C188.576 25.064 190.08 24.136 191.584 23.208H192.16V33.432V67.752ZM188.128 37.752V31.848H208.72L207.904 37.752H188.128ZM232.953 79.608C235.705 79.608 237.993 78.776 239.817 77.112C241.673 75.448 243.049 72.936 243.945 69.576C244.873 66.184 245.337 61.944 245.337 56.856C245.337 51.672 244.889 47.336 243.993 43.848C243.129 40.328 241.785 37.688 239.961 35.928C238.169 34.136 235.881 33.24 233.097 33.24C230.345 33.24 228.041 34.088 226.185 35.784C224.361 37.448 222.985 39.96 222.057 43.32C221.161 46.68 220.713 50.904 220.713 55.992C220.713 61.176 221.161 65.528 222.057 69.048C222.953 72.536 224.297 75.176 226.089 76.968C227.913 78.728 230.201 79.608 232.953 79.608ZM232.713 82.056C228.169 82.056 224.073 80.968 220.425 78.792C216.777 76.616 213.897 73.608 211.785 69.768C209.673 65.896 208.617 61.448 208.617 56.424C208.617 51.4 209.705 46.968 211.881 43.128C214.089 39.256 217.065 36.232 220.809 34.056C224.553 31.88 228.745 30.792 233.385 30.792C238.025 30.792 242.153 31.88 245.769 34.056C249.385 36.232 252.233 39.24 254.313 43.08C256.425 46.92 257.481 51.368 257.481 56.424C257.481 61.448 256.361 65.896 254.121 69.768C251.881 73.608 248.889 76.616 245.145 78.792C241.401 80.968 237.257 82.056 232.713 82.056ZM284.426 79.608C287.178 79.608 289.466 78.776 291.29 77.112C293.146 75.448 294.522 72.936 295.418 69.576C296.346 66.184 296.81 61.944 296.81 56.856C296.81 51.672 296.362 47.336 295.466 43.848C294.602 40.328 293.258 37.688 291.434 35.928C289.642 34.136 287.354 33.24 284.57 33.24C281.818 33.24 279.514 34.088 277.658 35.784C275.834 37.448 274.458 39.96 273.53 43.32C272.634 46.68 272.186 50.904 272.186 55.992C272.186 61.176 272.634 65.528 273.53 69.048C274.426 72.536 275.77 75.176 277.562 76.968C279.386 78.728 281.674 79.608 284.426 79.608ZM284.186 82.056C279.642 82.056 275.546 80.968 271.898 78.792C268.25 76.616 265.37 73.608 263.258 69.768C261.146 65.896 260.09 61.448 260.09 56.424C260.09 51.4 261.178 46.968 263.354 43.128C265.562 39.256 268.538 36.232 272.282 34.056C276.026 31.88 280.218 30.792 284.858 30.792C289.498 30.792 293.626 31.88 297.242 34.056C300.858 36.232 303.706 39.24 305.786 43.08C307.898 46.92 308.954 51.368 308.954 56.424C308.954 61.448 307.834 65.896 305.594 69.768C303.354 73.608 300.362 76.616 296.618 78.792C292.874 80.968 288.73 82.056 284.186 82.056ZM327.594 78.168L333.93 79.656V81H310.026V79.656L316.314 78.168V19.272C315.898 19.048 315.306 18.728 314.538 18.312C313.802 17.896 312.922 17.4 311.898 16.824C310.874 16.216 309.738 15.56 308.49 14.856V13.848L327.162 9.672H327.594V18.456V78.168ZM354.491 30.792C356.827 30.792 358.923 31.016 360.779 31.464C362.635 31.912 364.523 32.584 366.443 33.48L368.075 46.68H366.587L359.867 33.624L363.803 37.896C362.075 36.136 360.459 34.904 358.955 34.2C357.451 33.464 355.707 33.096 353.723 33.096C350.907 33.096 348.747 33.688 347.243 34.872C345.739 36.056 344.987 37.816 344.987 40.152C344.987 41.4 345.243 42.552 345.755 43.608C346.299 44.664 347.387 45.72 349.019 46.776C350.683 47.8 353.227 48.936 356.651 50.184C359.179 51.112 361.275 52.136 362.939 53.256C364.635 54.344 365.979 55.544 366.971 56.856C367.963 58.136 368.651 59.544 369.035 61.08C369.451 62.584 369.659 64.216 369.659 65.976C369.659 69.144 368.795 71.944 367.067 74.376C365.339 76.776 363.003 78.664 360.059 80.04C357.147 81.384 353.883 82.056 350.267 82.056C347.611 82.056 345.259 81.816 343.211 81.336C341.163 80.856 339.259 80.152 337.499 79.224L334.811 64.056H336.491L344.843 79.608L342.251 76.968C343.115 77.576 344.011 78.088 344.939 78.504C345.899 78.888 346.875 79.192 347.867 79.416C348.891 79.608 349.899 79.704 350.891 79.704C353.611 79.704 356.011 78.952 358.091 77.448C360.171 75.912 361.211 73.608 361.211 70.536C361.211 69.352 361.019 68.28 360.635 67.32C360.251 66.328 359.611 65.4 358.715 64.536C357.819 63.64 356.587 62.792 355.019 61.992C353.483 61.16 351.547 60.344 349.211 59.544C346.075 58.424 343.579 57.16 341.723 55.752C339.899 54.344 338.587 52.76 337.787 51C337.019 49.208 336.635 47.208 336.635 45C336.635 41.992 337.435 39.432 339.035 37.32C340.667 35.208 342.827 33.592 345.515 32.472C348.235 31.352 351.227 30.792 354.491 30.792Z" fill="#5E5E5E"/>
</svg>
